<?xml version="1.0" encoding="UTF-8"?>
<svg xmlns="http://www.w3.org/2000/svg" xmlns:xlink="http://www.w3.org/1999/xlink" width="512" height="512" viewBox="0 0 53 61" version="1.1"><!-- Generator: Sketch 51.3 (57544) - http://www.bohemiancoding.com/sketch --><title>035 - Phones for hard of hearing</title><desc>Created with Sketch.</desc><defs/><g id="Page-1" stroke="none" stroke-width="1" fill="none" fill-rule="evenodd"><g id="035---Phones-for-hard-of-hearing" transform="translate(-1.000000, 0.000000)" fill-rule="nonzero"><path d="M21.96,56.73 C22.0434188,57.2078934 21.9316165,57.6992754 21.6496466,58.0940333 C21.3676767,58.4887911 20.9391161,58.7539172 20.46,58.83 L15.84,59.86 C14.6044091,60.1397607 13.31044,59.9916771 12.17,59.44 C8.5,57.59 2,52.09 2,34 C2,15.91 8.5,10.41 12.17,8.56 C12.4763576,8.40636313 12.7981612,8.28568678 13.13,8.2 C14.0143054,7.95506687 14.9457207,7.93444513 15.84,8.14 L20.46,9.17 C20.9391161,9.24608277 21.3676767,9.51120887 21.6496466,9.90596673 C21.9316165,10.3007246 22.0434188,10.7921066 21.96,11.27 L20.71,16.84 L19.66,21.5 C19.3793606,22.4779073 18.4155412,23.0947518 17.41,22.94 L15.62,22.74 L12.82,22.43 C12.4059094,22.3825902 11.9868101,22.4518628 11.61,22.63 C11.1401408,22.8361984 10.7801728,23.2325268 10.62,23.72 C10.01,25.6 9.12,27.67 9.12,34 C9.12,40.33 10.01,42.4 10.62,44.28 C10.7801728,44.7674732 11.1401408,45.1638016 11.61,45.37 C11.9868101,45.5481372 12.4059094,45.6174098 12.82,45.57 L15.62,45.26 L17.41,45.06 C18.4155412,44.9052482 19.3793606,45.5220927 19.66,46.5 L20.74,51.31 L21.96,56.73 Z" id="Shape" fill="#CAD9FC"/><path d="M18.96,56.73 C19.0434188,57.2078934 18.9316165,57.6992754 18.6496466,58.0940333 C18.3676767,58.4887911 17.9391161,58.7539172 17.46,58.83 L13.13,59.8 C12.7995882,59.7098453 12.4782202,59.5893323 12.17,59.44 C8.5,57.59 2,52.09 2,34 C2,15.91 8.5,10.41 12.17,8.56 C12.4763576,8.40636313 12.7981612,8.28568678 13.13,8.2 L17.46,9.17 C17.9391161,9.24608277 18.3676767,9.51120887 18.6496466,9.90596673 C18.9316165,10.3007246 19.0434188,10.7921066 18.96,11.27 L17.71,16.84 L16.66,21.5 C16.5232011,22.0516457 16.1394046,22.5092494 15.62,22.74 C15.2431899,22.9181372 14.8240906,22.9874098 14.41,22.94 L11.61,22.63 L9.82,22.43 C8.8742191,22.2874025 7.95737519,22.8250064 7.62,23.72 C7.01,25.6 6.12,27.67 6.12,34 C6.12,40.33 7.01,42.4 7.62,44.28 C7.95737519,45.1749936 8.8742191,45.7125975 9.82,45.57 L11.61,45.37 L14.41,45.06 C14.8240906,45.0125902 15.2431899,45.0818628 15.62,45.26 C16.1394046,45.4907506 16.5232011,45.9483543 16.66,46.5 L17.74,51.31 L18.96,56.73 Z" id="Shape" fill="#E8EDFC"/><path d="M37.062,43.009 C36.184972,42.7820215 35.5307252,42.0495382 35.4038336,41.1525455 C35.2769419,40.2555528 35.7023437,39.3703387 36.482,38.909 C48.1132061,32.0275743 51.9792166,17.0296725 45.124,5.383 C44.7161813,4.69294151 44.7074832,3.83773251 45.101182,3.13952193 C45.4948808,2.44131136 46.2311645,2.00617402 47.032682,1.99802193 C47.8341995,1.98986985 48.5791813,2.40994151 48.987,3.1 C57.0981011,16.8808544 52.5234976,34.6267909 38.761,42.769 C38.2493812,43.0725075 37.6376695,43.1589176 37.062,43.009 Z" id="Shape" fill="#7FACFA"/><path d="M31.65,36.41 C30.7736713,36.1822002 30.1202465,35.4498476 29.9934208,34.553321 C29.866595,33.6567943 30.2912433,32.7719338 31.07,32.31 C39.3171474,27.4331476 42.0595668,16.8003446 37.2,8.543 C36.5703955,7.47653815 36.9245382,6.10160468 37.9910001,5.47200009 C39.0574619,4.84239549 40.4323954,5.19653821 41.062,6.263 C47.1787044,16.6529311 43.7282922,30.0335686 33.35,36.17 C32.8379968,36.4734576 32.2260006,36.559857 31.65,36.41 Z" id="Shape" fill="#7FACFA"/><path d="M26.239,29.812 C25.361972,29.5850215 24.7077252,28.8525382 24.5808336,27.9555455 C24.4539419,27.0585528 24.8793437,26.1733387 25.659,25.712 C30.5210219,22.8365085 32.1366624,16.5672328 29.27,11.7 C28.8628958,11.0101201 28.8547626,10.1554574 29.248664,9.45795491 C29.6425654,8.76045244 30.3786585,8.32607748 31.179664,8.31845489 C31.9806696,8.3108323 32.7248959,8.73112012 33.132,9.421 C37.2541779,16.420339 34.9301972,25.4357195 27.938,29.57 C27.4264736,29.8736524 26.8149656,29.9607536 26.239,29.812 Z" id="Shape" fill="#7FACFA"/><path d="M15.616,22.741 L14.61,22.63 C14.4537194,22.7056041 14.3078482,22.801059 14.176,22.914 L14.41,22.94 C14.8226842,22.9871232 15.2403323,22.9182078 15.616,22.741 Z" id="Shape" fill="#FFFFFF"/><path d="M15.616,45.259 C15.2404301,45.0814501 14.8227776,45.0121877 14.41,45.059 L14.176,45.085 C14.3078482,45.197941 14.4537194,45.2933959 14.61,45.369 L15.616,45.259 Z" id="Shape" fill="#FFFFFF"/><path d="M17.41,45.06 C17.6025247,45.0397043 17.7968929,45.0450847 17.988,45.076 C17.7968021,45.0460607 17.6025614,45.0406838 17.41,45.06 Z" id="Shape" fill="#FFFFFF"/><path d="M18.6,45.255 C18.4324612,45.177467 18.2556936,45.121681 18.074,45.089 C18.2554266,45.1227566 18.4320624,45.1785009 18.6,45.255 Z" id="Shape" fill="#FFFFFF"/><path d="M17.988,22.924 C17.7968929,22.9549153 17.6025247,22.9602957 17.41,22.94 C17.6025614,22.9593162 17.7968021,22.9539393 17.988,22.924 Z" id="Shape" fill="#FFFFFF"/><path d="M18.077,22.911 C18.2586936,22.878319 18.4354612,22.822533 18.603,22.745 C18.4350624,22.8214991 18.2584266,22.8772434 18.077,22.911 Z" id="Shape" fill="#FFFFFF"/><path d="M15.17,59.44 C11.5,57.59 5,52.09 5,34 C5,15.91 11.5,10.41 15.17,8.56 C15.4735257,8.40780126 15.7922992,8.28813552 16.121,8.203 L15.84,8.14 C14.9457207,7.93444513 14.0143054,7.95506687 13.13,8.2 C12.7981612,8.28568678 12.4763576,8.40636313 12.17,8.56 C8.5,10.41 2,15.91 2,34 C2,52.09 8.5,57.59 12.17,59.44 C13.31044,59.9916771 14.6044091,60.1397607 15.84,59.86 L16.122,59.797 C15.794405,59.7074004 15.4757329,59.5878984 15.17,59.44 Z" id="Shape" fill="#FFFFFF"/><path d="M12.622,9.45 C10.8318939,10.3916889 9.27703813,11.7247154 8.073,13.35 C6.85632796,15.0243785 5.88861342,16.8661686 5.2,18.818 C3.64033071,23.7240694 2.8971038,28.8530108 3,34 L1,34 C0.894007408,28.6215806 1.67652538,23.2625488 3.316,18.139 C4.07426481,15.9984594 5.13938075,13.9793876 6.478,12.145 C7.86526595,10.2762341 9.65688284,8.74510412 11.719,7.666 L12.622,9.45 Z" id="Shape" fill="#FFFFFF"/><path d="M8.231,11.593 C8.62197551,11.9594572 9.22936134,11.9625094 9.624,11.6 C10.5156343,10.7430705 11.525999,10.0189759 12.624,9.45 L11.724,7.666 C10.4497724,8.32438296 9.27733225,9.16337995 8.243,10.157 C8.04372876,10.3418212 7.9294887,10.6006343 7.92721758,10.8724113 C7.92494646,11.1441883 8.03484531,11.4048744 8.231,11.593 Z" id="Shape" fill="#428DFF"/><path d="M1,34 L3,34 C2.8971038,28.8530108 3.64033071,23.7240694 5.2,18.818 L5.558,17.925 C5.74236395,17.4155993 5.5048075,16.8499887 5.012,16.625 C4.76676405,16.5143636 4.48657021,16.5106634 4.23849823,16.6147854 C3.99042625,16.7189074 3.79680923,16.9214777 3.704,17.174 L3.319,18.138 C1.67839956,23.2616969 0.894866067,28.6210795 1,34 Z" id="Shape" fill="#428DFF"/><path d="M7.269,14.518 C7.39735551,14.3013664 7.44582529,14.0466347 7.406,13.798 L7.349,13.617 C7.32325563,13.5546459 7.28965023,13.4958365 7.249,13.442 C7.21916944,13.385953 7.18107646,13.3347129 7.136,13.29 C7.08902706,13.2422979 7.03855302,13.1981749 6.985,13.158 C6.76654523,13.0044955 6.49577588,12.9447246 6.233,12.992 C6.09974384,13.0226476 5.9735119,13.0782983 5.861,13.156 C5.51878478,13.4002755 5.35609419,13.8257134 5.448,14.236 C5.51857859,14.4911558 5.68523365,14.7090618 5.913,14.844 C6.14527435,14.9696648 6.41476921,15.008316 6.673,14.953 C6.92061452,14.8908915 7.13435493,14.7348897 7.269,14.518 Z" id="Shape" fill="#428DFF"/><path d="M14.575,61 C13.5838138,61.0051781 12.6053614,60.776667 11.719,60.333 C6.829,57.859 1,51.28 1,34 C1,33.4477153 1.44771525,33 2,33 C2.55228475,33 3,33.4477153 3,34 C3,50.264 8.232,56.328 12.622,58.55 C13.555056,58.9987088 14.6129494,59.1168403 15.622,58.885 L20.238,57.859 C20.5023058,57.8074651 20.7359596,57.6545672 20.889,57.433 C20.9834333,57.2890724 21.0162124,57.1132898 20.98,56.945 L18.68,46.72 C18.5033005,46.2478718 18.0157546,45.9681943 17.519,46.054 L12.926,46.564 C11.5056108,46.7651146 10.1397522,45.9392466 9.658,44.588 L9.49,44.076 C8.877,42.222 8.114,39.916 8.114,34 C8.114,28.084 8.877,25.778 9.49,23.924 L9.658,23.412 C10.1410244,22.0617927 11.5059401,21.2364948 12.926,21.436 L17.519,21.946 C18.0163454,22.035181 18.5059159,21.7543421 18.68,21.28 L20.98,11.055 C21.0171397,10.8867242 20.9842932,10.7105803 20.889,10.567 C20.7361875,10.3451992 20.5024286,10.1922325 20.238,10.141 L15.626,9.115 C14.6168943,8.88412298 13.5593222,9.00221854 12.626,9.45 C12.3052878,9.62943118 11.9119995,9.61849664 11.6017525,9.42152299 C11.2915054,9.22454934 11.1142946,8.87327801 11.1402391,8.50670097 C11.1661837,8.14012392 11.3911029,7.81731343 11.726,7.666 C13.07223,7.00313818 14.6063412,6.82647867 16.068,7.166 L20.683,8.192 C21.4653423,8.35736094 22.1492951,8.82820845 22.583,9.5 C22.9632815,10.0926776 23.0904095,10.8129495 22.936,11.5 L20.636,21.725 C20.2486472,23.2032222 18.8120568,24.154059 17.3,23.933 L12.707,23.423 C12.2351249,23.3459481 11.769268,23.5907066 11.565,24.023 L11.391,24.554 C10.823,26.272 10.116,28.408 10.116,34.002 C10.116,39.596 10.823,41.732 11.391,43.45 L11.565,43.981 C11.7679793,44.4145266 12.2348407,44.6598128 12.707,44.581 L17.3,44.071 C18.8127964,43.8521221 20.2482724,44.8056605 20.633,46.285 L22.933,56.51 C23.0872292,57.197181 22.9597315,57.917507 22.579,58.51 C22.1437046,59.182722 21.4573829,59.6533529 20.673,59.817 L16.06,60.837 C15.5724372,60.9453967 15.074467,61.0000561 14.575,61 Z" id="Shape" fill="#428DFF"/><path d="M37.628,44.082 C37.352895,44.0828101 37.0787684,44.0492161 36.812,43.982 C35.5414123,43.6551325 34.5930746,42.5947092 34.4095897,41.2956446 C34.2261048,39.99658 34.8436467,38.7149857 35.974,38.049 C47.1304382,31.4482149 50.8385184,17.0623489 44.263,5.891 C43.6349729,4.89125283 43.5998859,3.62918652 44.1713975,2.5960907 C44.742909,1.56299488 45.8307117,0.922114367 47.0113521,0.922927294 C48.1919926,0.92374022 49.2789116,1.56611813 49.849,2.6 C58.2350412,16.8546415 53.5030524,35.207369 39.27,43.63 C38.7731719,43.9253489 38.2059869,44.0814802 37.628,44.082 Z M47.054,3 C46.6082985,3.00069121 46.1970817,3.23996165 45.9762409,3.62710457 C45.7554,4.0142475 45.758742,4.48999784 45.985,4.874 C53.1181465,16.9962449 49.0945463,32.6048611 36.99,39.768 C36.5578246,40.0238668 36.3220927,40.5146726 36.3925379,41.011946 C36.4629831,41.5092194 36.825762,41.9152384 37.312,42.041 C37.630493,42.1244755 37.9691669,42.0765567 38.252,41.908 C51.5394882,34.0468015 55.956551,16.9135724 48.126,3.608 C47.9004927,3.23087506 47.493405,2.9999895 47.054,3 Z" id="Shape" fill="#428DFF"/><path d="M32.215,37.482 C31.9401968,37.4832786 31.6663424,37.4496768 31.4,37.382 C30.1299918,37.0547723 29.1822303,35.9946171 28.998781,34.6960235 C28.8153317,33.39743 29.4323344,32.1162241 30.562,31.45 C38.3330637,26.8520435 40.9156473,16.8312792 36.335,9.05 C35.4237302,7.50746869 35.9354687,5.51826984 37.478,4.607 C39.0205313,3.69573016 41.0097302,4.20746869 41.921,5.75 C48.3178369,16.6150349 44.7104652,30.6078612 33.858,37.026 C33.3612789,37.3229233 32.7936993,37.4804499 32.215,37.482 Z M39.126,6.16 C38.6804773,6.16104895 38.2695885,6.40046038 38.0489918,6.78753746 C37.828395,7.17461455 37.8318317,7.6501517 38.058,8.034 C43.196684,16.7654875 40.2983956,28.0088248 31.579,33.168 C31.1461077,33.4233165 30.9095584,33.9141926 30.9795914,34.4118649 C31.0496245,34.9095371 31.4124578,35.3160674 31.899,35.442 C32.2178242,35.5254131 32.5567816,35.4775052 32.84,35.309 C42.7437589,29.453937 46.036744,16.6855661 40.2,6.771 C39.975238,6.39272304 39.5680125,6.16061971 39.128,6.16 L39.126,6.16 Z" id="Shape" fill="#428DFF"/><path d="M26.805,30.884 C26.5298668,30.8852878 26.2556805,30.8516865 25.989,30.784 C24.7189918,30.4567723 23.7712303,29.3966171 23.587781,28.0980235 C23.4043317,26.79943 24.0213344,25.5182241 25.151,24.852 C29.5351073,22.2581009 30.9921457,16.6048634 28.408,12.215 C27.4967302,10.6724687 28.0084687,8.68326984 29.551,7.772 C31.0935313,6.86073016 33.0827302,7.37246869 33.994,8.915 C38.3953762,16.3900482 35.9136147,26.0173321 28.447,30.433 C27.9498981,30.7275883 27.382834,30.883341 26.805,30.884 Z M31.2,9.319 C30.7544312,9.3204632 30.3436715,9.56011837 30.1231402,9.94728708 C29.9026089,10.3344558 29.9059884,10.8100046 30.132,11.194 C33.2754686,16.5359399 31.5017419,23.4143312 26.167,26.57 C25.7779725,26.7924069 25.5387713,27.2069942 25.5409358,27.6551041 C25.5431003,28.1032141 25.7862955,28.5154712 26.1774533,28.7341096 C26.5686111,28.952748 27.0471734,28.9439185 27.43,28.711 C33.9468271,24.8573909 36.1127995,16.4547961 32.271,9.931 C32.1045397,9.64620528 31.8307407,9.44013551 31.511,9.359 C31.4093701,9.33294152 31.3049162,9.31950693 31.2,9.319 Z" id="Shape" fill="#428DFF"/></g></g></svg>
