<?xml version="1.0" encoding="UTF-8"?>
<svg xmlns="http://www.w3.org/2000/svg" xmlns:xlink="http://www.w3.org/1999/xlink" width="512" height="512" viewBox="0 0 60 61" version="1.1"><!-- Generator: Sketch 51.3 (57544) - http://www.bohemiancoding.com/sketch --><title>016 - Property Search</title><desc>Created with Sketch.</desc><defs><linearGradient x1="15.0760868%" y1="15.0952212%" x2="85.4619646%" y2="85.4478605%" id="linearGradient-1"><stop stop-color="#D3DFF2" offset="0%"/><stop stop-color="#D3DFF2" offset="17.2%"/><stop stop-color="#D3DFF2" offset="20%"/><stop stop-color="#DAE2F2" offset="20%"/><stop stop-color="#EBEAF2" offset="20.1%"/><stop stop-color="#F6EFF2" offset="20.1%"/><stop stop-color="#FDF2F2" offset="20.2%"/><stop stop-color="#FFF3F2" offset="20.5%"/><stop stop-color="#FFF3F2" offset="25.2%"/><stop stop-color="#FFF3F2" offset="26%"/><stop stop-color="#D3DFF2" offset="26%"/><stop stop-color="#D3DFF2" offset="39.7%"/><stop stop-color="#D3DFF2" offset="42%"/><stop stop-color="#DAE2F2" offset="42%"/><stop stop-color="#EBEAF2" offset="42.1%"/><stop stop-color="#F6EFF2" offset="42.1%"/><stop stop-color="#FDF2F2" offset="42.2%"/><stop stop-color="#FFF3F2" offset="42.5%"/><stop stop-color="#FFF3F2" offset="48.9%"/><stop stop-color="#FFF3F2" offset="50%"/><stop stop-color="#F8F0F2" offset="50%"/><stop stop-color="#E7E8F2" offset="50%"/><stop stop-color="#DCE3F2" offset="50%"/><stop stop-color="#D5E0F2" offset="50%"/><stop stop-color="#D3DFF2" offset="50.1%"/><stop stop-color="#D3DFF2" offset="70.6%"/><stop stop-color="#D3DFF2" offset="74%"/><stop stop-color="#FFF3F2" offset="74.1%"/><stop stop-color="#FFF3F2" offset="83.5%"/><stop stop-color="#FFF3F2" offset="85%"/><stop stop-color="#D3DFF2" offset="85.1%"/></linearGradient></defs><g id="Page-1" stroke="none" stroke-width="1" fill="none" fill-rule="evenodd"><g id="016---Property-Search" transform="translate(0.000000, -1.000000)" fill-rule="nonzero"><path d="M54.19,48.12 L47.15,55.15 L47.12,55.19 L47.11,55.18 L47.1,55.18 L43.8,51.87 C43.4122764,51.4799625 43.4122764,50.8500375 43.8,50.46 L48.1,46.16 L49.46,44.8 C49.8500375,44.4122764 50.4799625,44.4122764 50.87,44.8 L54.19,48.12 Z" id="Shape" fill="#CAD9FC"/><path d="M57.54,58.54 C57.2891968,58.7936002 57.0107971,59.0183325 56.71,59.21 C54.7313753,60.4823925 52.1333987,60.2034431 50.47,58.54 L47.12,55.19 L47.15,55.15 L54.19,48.12 L57.54,51.47 C59.4919097,53.4224993 59.4919097,56.5875007 57.54,58.54 Z" id="Shape" fill="#CAD9FC"/><path d="M51.58,50.611 L47.11,55.18 L47.1,55.18 L43.8,51.87 C43.4122764,51.4799625 43.4122764,50.8500375 43.8,50.46 L47,47.16 C47.3987354,46.9034047 47.9220548,46.957398 48.26,47.29 L51.58,50.611 Z" id="Shape" fill="#E8EDFC"/><path d="M56.71,59.21 C54.7313753,60.4823925 52.1333987,60.2034431 50.47,58.54 L47.12,55.19 L51.66,50.65 L55,54 C56.69,55.69 57.96,57.27 56.71,59.21 Z" id="Shape" fill="#E8EDFC"/><rect id="Rectangle-path" fill="#7FACFA" transform="translate(43.374867, 44.375354) rotate(-45.000000) translate(-43.374867, -44.375354) " x="40.3768668" y="39.7718536" width="5.996" height="9.207"/><rect id="Rectangle-path" fill="#A4C2F7" transform="translate(42.374867, 45.375567) rotate(-45.000000) translate(-42.374867, -45.375567) " x="40.7908668" y="40.7720671" width="3.168" height="9.207"/><path d="M40.26,41.26 C31.2280152,49.9270526 16.9232047,49.7795945 8.07180512,40.9281949 C-0.779594489,32.0767953 -0.927052569,17.7719848 7.74,8.74 C16.7719848,0.0729474308 31.0767953,0.220405511 39.9281949,9.07180512 C48.7795945,17.9232047 48.9270526,32.2280152 40.26,41.26 Z" id="Shape" fill="#CAD9FC"/><path d="M37.26,41.26 C33.3230565,45.2176216 28.0716048,47.5942949 22.5,47.94 C13.4904754,47.3549522 5.65758853,41.5501908 2.47613505,33.1008022 C-0.705318426,24.6514136 1.35378748,15.1220141 7.74,8.74 C11.6769435,4.78237843 16.9283952,2.40570515 22.5,2.06 C31.5095246,2.6450478 39.3424115,8.44980915 42.523865,16.8991978 C45.7053184,25.3485864 43.6462125,34.8779859 37.26,41.26 Z" id="Shape" fill="#E8EDFC"/><path d="M24,45 C15.910218,45.0006993 8.61669753,40.1278475 5.52077735,32.6539026 C2.42485718,25.1799577 4.13631058,16.5769901 9.857,10.857 C17.6679632,3.04603678 30.3320368,3.04603678 38.143,10.857 C45.9539632,18.6679632 45.9539632,31.3320368 38.143,39.143 C34.3999511,42.9056275 29.3073126,45.0146273 24,45 Z" id="Shape" fill="#7F8C8D"/><path d="M37.44,38.44 C30.0134193,45.8533492 17.9865807,45.8533492 10.56,38.44 C10.43,38.31 10.3,38.17 10.17,38.03 C5.44158992,33.1586837 3.67117514,26.134825 5.52565378,19.6042436 C7.38013242,13.0736622 12.5777651,8.02850871 19.1606538,6.36924362 C25.7435425,4.70997853 32.7115899,6.68868368 37.44,11.56 C39.5602904,13.6759522 41.1442739,16.2679252 42.06,19.12 C44.2679483,25.9166922 42.4838576,33.3774353 37.44,38.44 Z" id="Shape" fill="url(#linearGradient-1)"/><path d="M16,22.33 L24.259,15.148 L32,22.33 L32,34 C32,34.5522847 31.5522847,35 31,35 L17,35 C16.4477153,35 16,34.5522847 16,34 L16,22.33 Z" id="Shape" fill="#F18D46"/><path d="M17,20.959 L24.227,13 L31,20.959 L31,33.892 C31.0561241,34.4372335 30.668393,34.9282119 30.125,35 L17.875,35 C17.331607,34.9282119 16.9438759,34.4372335 17,33.892 L17,20.959 Z" id="Shape" fill="#E8EDFC"/><path d="M34.445,23.964 L24.555,17.37 C24.2189631,17.1458005 23.7810369,17.1458005 23.445,17.37 L13.555,23.964 C13.2479921,24.1688322 12.8531215,24.1879138 12.5277937,24.0136385 C12.2024658,23.8393632 11.9995755,23.5000663 12,23.131 L12,20.531 C11.99995,20.1967215 12.1669303,19.8845246 12.445,19.699 L23.445,12.366 C23.7810369,12.1418005 24.2189631,12.1418005 24.555,12.366 L35.555,19.699 C35.8330697,19.8845246 36.00005,20.1967215 36,20.531 L36,23.131 C36.0004245,23.5000663 35.7975342,23.8393632 35.4722063,24.0136385 C35.1468785,24.1879138 34.7520079,24.1688322 34.445,23.964 Z" id="Shape" fill="#A4C2F7"/><path d="M22,27 L26,27 C26.5522847,27 27,27.4477153 27,28 L27,35 L21,35 L21,28 C21,27.4477153 21.4477153,27 22,27 Z" id="Shape" fill="#A4C2F7"/><path d="M22.5,47.94 C23.4956069,48.0049992 24.4943931,48.0049992 25.49,47.94 C16.4822596,47.351366 8.65273411,41.5452576 5.4737136,33.0966065 C2.29469308,24.6479554 4.35464181,15.1206801 10.74,8.74 C14.6746205,4.78504199 19.922067,2.40892707 25.49,2.061 C12.820864,1.2353343 1.8811657,10.836364 1.0555,23.5055 C0.229834299,36.174636 9.83086398,47.1143343 22.5,47.94 Z" id="Shape" fill="#FFFFFF"/><path d="M8.444,9.444 C6.99352416,10.9276618 5.74539452,12.5964299 4.732,14.407 C3.72968944,16.2230432 2.99445868,18.174116 2.549,20.2 C1.74503368,23.8155794 1.85709322,27.5747303 2.875,31.136 C3.93470498,34.6831585 5.84669121,37.9169524 8.444,40.555 L7.029,41.971 C4.19372045,39.0939258 2.10772965,35.5650818 0.954,31.694 C-0.15600495,27.8099426 -0.277691944,23.7100534 0.6,19.767 C1.08561024,17.5553532 1.8871694,15.4251592 2.98,13.442 C4.08488926,11.4668984 5.44638265,9.64675426 7.029,8.029 L8.444,9.444 Z" id="Shape" fill="#FFFFFF"/><path d="M4.033,14.767 C3.99879683,14.7081614 3.9574867,14.653753 3.91,14.605 C3.87175986,14.5531322 3.82629982,14.5069987 3.775,14.468 C3.72110589,14.4277156 3.66465389,14.3909717 3.606,14.358 C3.37252077,14.2374023 3.10015986,14.2164792 2.851,14.3 C2.7271855,14.3499985 2.61413487,14.4233287 2.518,14.516 C2.21813589,14.8016605 2.10783724,15.2335341 2.234,15.628 C2.33378718,15.8709721 2.52371159,16.0659133 2.764,16.172 C3.01231583,16.2685286 3.28669025,16.2745471 3.539,16.189 C3.78304289,16.1029457 3.98206818,15.9221082 4.09104499,15.6874034 C4.20002179,15.4526986 4.20973971,15.183963 4.118,14.942 L4.033,14.767 Z" id="Shape" fill="#428DFF"/><path d="M9.857,39.142 C17.6674109,46.9529632 30.3310368,46.9534109 38.142,39.143 C45.9529632,31.3325891 45.9534109,18.6689632 38.143,10.858 C33.0905501,5.80519264 25.7262531,3.83165609 18.8241686,5.68080248 C11.9220841,7.52994887 6.53080293,12.9208489 4.6811685,19.8228026 C2.83153408,26.7247563 4.8045499,34.0891928 9.857,39.142 Z M11.271,12.271 C18.300606,5.24203241 29.6972784,5.24237741 36.7264588,12.2717706 C43.7556392,19.3011638 43.7556392,30.6978362 36.7264588,37.7272294 C29.6972784,44.7566226 18.300606,44.7569676 11.271,37.728 C7.86702699,34.3672108 5.95102259,29.7830067 5.95102259,24.9995 C5.95102259,20.2159933 7.86702699,15.6317892 11.271,12.271 Z" id="Shape" fill="#428DFF"/><path d="M51.577,44.091 C50.7960003,43.3102361 49.5299997,43.3102361 48.749,44.091 L43.543,38.891 C50.78876,28.7273997 49.0286136,14.7054701 39.4956066,6.64807674 C29.9625996,-1.40931661 15.8433938,-0.808775262 7.029,8.029 L5.63,9.576 C5.161,10.09 4.789,10.683 4.365,11.234 C4.19892202,11.4485851 4.13174495,11.7235848 4.18018411,11.9905723 C4.22862327,12.2575598 4.38812453,12.4914336 4.619,12.634 C5.07613741,12.91286 5.66963313,12.8054205 6,12.384 C6.391,11.884 6.728,11.334 7.16,10.864 L8.443,9.444 C17.0347244,0.852994466 30.9640193,0.853382971 39.5552645,9.44486776 C48.1465096,18.0363525 48.1465096,31.9656475 39.5552645,40.5571322 C30.9640193,49.148617 17.0347244,49.1490055 8.443,40.558 C5.84569121,37.9199524 3.93370498,34.6861585 2.874,31.139 C1.8559173,27.576702 1.74419961,23.8164562 2.549,20.2 L2.776,19.271 C2.8917948,18.7482688 2.59456361,18.2223982 2.087,18.052 C1.82933067,17.9668859 1.54772104,17.9943152 1.31131958,18.1275527 C1.07491812,18.2607903 0.905621484,18.4874949 0.845,18.752 L0.6,19.767 C-0.277734719,23.7097133 -0.156046793,27.8092901 0.954,31.693 C2.10772965,35.5640818 4.19372045,39.0929258 7.029,41.97 C15.3082197,50.244733 28.352147,51.3319383 37.887,44.542 L43.087,49.748 C42.3062361,50.5289997 42.3062361,51.7950003 43.087,52.576 L49.754,59.243 C51.265702,60.7791618 53.4851743,61.3865191 55.5684123,60.8341105 C57.6516503,60.2817019 59.2785634,58.6544053 59.8304809,56.5710371 C60.3823985,54.487669 59.774518,52.2683398 58.238,50.757 L51.577,44.091 Z M44.506,48.334 L39.485,43.313 C39.991,42.885 40.493,42.448 40.971,41.971 C41.449,41.494 41.885,40.991 42.313,40.485 L47.335,45.506 L45.92,46.92 L44.506,48.334 Z M50.163,45.506 L52.776,48.119 L47.115,53.772 L44.506,51.163 L50.163,45.506 Z M56.829,57.83 C55.2454419,59.3385715 52.7565581,59.3385715 51.173,57.83 L48.529,55.186 L54.19,49.534 L56.829,52.172 C57.579496,52.922192 58.0011459,53.9398533 58.0011459,55.001 C58.0011459,56.0621467 57.579496,57.079808 56.829,57.83 Z" id="Shape" fill="#428DFF"/><path d="M11.528,25.882 C11.8533403,26.0560849 12.2481091,26.0368654 12.555,25.832 L15,24.2 L15,34 C15,35.1045695 15.8954305,36 17,36 L31,36 C32.1045695,36 33,35.1045695 33,34 L33,24.2 L35.445,25.83 C35.7515602,26.034534 36.14577,26.0538804 36.4708844,25.8803466 C36.7959988,25.7068129 36.9993185,25.368528 37,25 L37,20 C37.00005,19.6657215 36.8330697,19.3535246 36.555,19.168 L24.555,11.168 C24.2189631,10.9438005 23.7810369,10.9438005 23.445,11.168 L11.445,19.168 C11.1669303,19.3535246 10.99995,19.6657215 11,20 L11,25 C10.9998519,25.3688816 11.2027945,25.7078879 11.528,25.882 Z M22,34 L22,28 L26,28 L26,34 L22,34 Z M31,34 L28,34 L28,28 C28,26.8954305 27.1045695,26 26,26 L22,26 C20.8954305,26 20,26.8954305 20,28 L20,34 L17,34 L17,22.868 L24,18.2 L31,22.866 L31,34 Z M13,20.535 L24,13.2 L35,20.533 L35,23.133 L24.555,16.168 C24.2189631,15.9438005 23.7810369,15.9438005 23.445,16.168 L13,23.131 L13,20.535 Z" id="Shape" fill="#428DFF"/></g></g></svg>
