<?xml version="1.0" encoding="utf-8"?>
<!-- Generator: Adobe Illustrator 22.0.1, SVG Export Plug-In . SVG Version: 6.00 Build 0)  -->
<svg version="1.1" id="Layer_1" xmlns="http://www.w3.org/2000/svg" xmlns:xlink="http://www.w3.org/1999/xlink" x="0px" y="0px"
	 viewBox="0 0 2500 2500" style="enable-background:new 0 0 2500 2500;" xml:space="preserve">
<style type="text/css">
	.st0{display:none;}
	.st1{display:inline;fill:none;stroke:#0072CE;stroke-width:150;stroke-miterlimit:10;}
	.st2{display:inline;fill:#0072CE;}
	.st3{fill:#0072CE;}
	.st4{fill:none;stroke:#0072CE;stroke-width:150;stroke-miterlimit:10;}
</style>
<g class="st0">
	<path class="st1" d="M1250,351.6c-560.9,0-1015.6,358.5-1015.6,800.8c0,285.9,190.1,536.8,476.1,678.5
		c-15.6,53.7-100,345.2-103.3,368.1c0,0-2,17.2,9.1,23.8c11.1,6.6,24.2,1.5,24.2,1.5c32-4.5,370.5-242.3,429.1-283.6
		c58.5,8.3,118.8,12.6,180.4,12.6c560.9,0,1015.6-358.5,1015.6-800.8C2265.6,710.1,1810.9,351.6,1250,351.6L1250,351.6z"/>
	<path class="st2" d="M688.5,1431.9c-32.3,0-58.6-25.1-58.6-56v-348.1h-91.4c-31.7,0-57.5-25.7-57.5-57.4s25.8-57.4,57.5-57.4h300
		c31.7,0,57.5,25.7,57.5,57.4s-25.8,57.4-57.5,57.4h-91.4v348.1C747.1,1406.8,720.8,1431.9,688.5,1431.9z M1202.3,1431.1
		c-24.4,0-43.1-9.9-48.8-25.9l-29-76l-178.7,0l-29,76c-5.6,15.9-24.3,25.8-48.7,25.8c-12.9,0-25.6-2.7-37.2-8.1
		c-16.2-7.5-31.7-27.9-13.9-83.2l140.2-368.9c9.9-28.1,39.9-57,78-57.8c38.3,0.9,68.3,29.8,78.2,57.9l140.1,368.7
		c17.8,55.4,2.3,75.9-13.8,83.3C1227.8,1428.4,1215.1,1431.1,1202.3,1431.1C1202.3,1431.1,1202.3,1431.1,1202.3,1431.1
		L1202.3,1431.1z M1093.7,1225.5l-58.5-166.3l-58.5,166.3H1093.7L1093.7,1225.5z M1347.7,1423.3c-31,0-56.2-24.1-56.2-53.7V971.7
		c0-32.3,26.8-58.6,59.8-58.6s59.8,26.3,59.8,58.6v344.2h124.5c31,0,56.2,24.1,56.2,53.7s-25.2,53.7-56.2,53.7H1347.7z
		 M1673.2,1431.1c-32.3,0-58.6-26.3-58.6-58.6V971.7c0-32.3,26.3-58.6,58.6-58.6s58.6,26.3,58.6,58.6v125.9l163.5-163.5
		c8.4-8.4,20-13,32.5-13c14.6,0,29.3,6.3,40.3,17.3c10.3,10.3,16.4,23.4,17.2,37.1c0.8,13.8-3.8,26.5-12.9,35.7l-133.5,133.5
		l144.2,191.1c9.4,12.4,13.5,28,11.2,43.4c-2.1,15.4-10.3,29.3-22.7,38.6c-10.1,7.7-22.5,11.9-35.2,11.8
		c-18.4,0.1-35.8-8.6-46.8-23.3l-137.4-182.1l-20.3,20.3v127.8C1731.8,1404.9,1705.5,1431.1,1673.2,1431.1L1673.2,1431.1z"/>
</g>
<g>
	<g>
		<path class="st3" d="M765.5,952.7c-41.2,0-78.9,16.8-107.8,44.5V849H555v465.3h102.7v-38.1c29,27.7,66.6,44.5,107.8,44.5
			c91.4,0,165.5-82.3,165.5-184C931,1035.1,856.9,952.7,765.5,952.7z M745.2,1231.6c-40.3,0-74.6-25.7-87.5-61.6v-63
			c12.9-35.9,47.1-61.6,87.5-61.6c51.3,0,93.1,41.7,93.1,93.1C838.3,1189.9,796.5,1231.6,745.2,1231.6z"/>
		<path class="st3" d="M1349.3,952.7c-101.6,0-184,82.3-184,183.9c0,101.7,82.4,184,184,184c101.6,0,184-82.3,184-184
			C1533.3,1035.1,1450.9,952.7,1349.3,952.7z M1349.3,1231.6c-48.5,0-87.7-41.7-87.7-93.1c0-51.4,39.3-93.1,87.7-93.1
			s87.7,41.7,87.7,93.1C1437,1189.9,1397.7,1231.6,1349.3,1231.6z"/>
		<path class="st3" d="M1956.8,1314.3V964.9h-102.7V993c-28.7-25.2-65.2-40.3-104.8-40.3c-92.8,0-167.9,82.3-167.9,183.9
			c0,101.7,75.2,184,167.9,184c39.7,0,76.1-15.1,104.8-40.3v33.9h0c0,32.3-36.8,58.5-82,58.5v91.6
			C1874.1,1464.4,1956.9,1397.2,1956.8,1314.3L1956.8,1314.3z M1772.1,1223.3c-51.3,0-93.1-39.8-93.1-88.9
			c0-49.1,41.7-88.9,93.1-88.9c35.5,0,66.3,19,82,46.9v84C1838.5,1204.3,1807.6,1223.3,1772.1,1223.3z"/>
		<path class="st3" d="M939.3,835.3v100.3c34.6,0,60.2,28,60.2,62.6v316.1h102.7V998.2C1102.2,908.2,1029.3,835.3,939.3,835.3z"/>
	</g>
	<path class="st4" d="M1912.6,351.6H587.4C400.5,351.6,249,503.1,249,690v820.7c0,186.9,151.5,338.4,338.4,338.4h465.7l157.7,273.1
		c20.2,35,70.6,35,90.8,0l157.7-273.1h453.3c186.9,0,338.4-151.5,338.4-338.4V690C2251,503.1,2099.5,351.6,1912.6,351.6z"/>
</g>
</svg>
