<svg xmlns="http://www.w3.org/2000/svg" xmlns:xlink="http://www.w3.org/1999/xlink" viewBox="0 0 1317.26 300">
   <defs>
      <style>.cls-1{fill:#0072ce;}.cls-2{fill:url(#linear-gradient);}.cls-3{fill:#66aae2;}</style>
      <linearGradient id="linear-gradient" x1="-53.92" y1="21.08" x2="356.74" y2="431.74" gradientUnits="userSpaceOnUse">
         <stop offset="0" stop-color="#66aae2"/>
         <stop offset="0.26" stop-color="#4f9dde"/>
         <stop offset="0.82" stop-color="#157dd2"/>
         <stop offset="1" stop-color="#0072ce"/>
      </linearGradient>
   </defs>
   <title>khandid blue</title>
   <g id="Layer_2" data-name="Layer 2">
      <g id="Layer_1-2" data-name="Layer 1">
         <path class="cls-1" d="M401.83,63.94v108l47.82-46.55H465c16.75,0,24.78,20.55,12.47,31.9L447.38,185,485,223.15c11.46,11.62,3.22,31.3-13.1,31.3h-20l-50.08-52.61v52.61H356.27V45.55h27.17A18.4,18.4,0,0,1,401.83,63.94Z"/>
         <path class="cls-1" d="M502.33,45.55H529.5a18.39,18.39,0,0,1,18.39,18.39v77.75q9.3-11.33,18.87-15.22t22.4-3.9q24.42,0,36.87,13.46t12.46,36.37v63.66a18.39,18.39,0,0,1-18.39,18.39H592.94V189.26a67.26,67.26,0,0,0-1.51-15.85,18.52,18.52,0,0,0-5-9.32,21.4,21.4,0,0,0-14.59-5.28q-11.58,0-17.75,6.92t-6.16,19.76v50.57a18.39,18.39,0,0,1-18.39,18.39H502.33Z"/>
         <path class="cls-1" d="M750.24,125.34h27.41A18.39,18.39,0,0,1,796,143.73v92.33a18.39,18.39,0,0,1-18.39,18.39H750.24V240.1q-14.61,18.38-39.52,18.37a64.08,64.08,0,0,1-25.92-5.16,62.29,62.29,0,0,1-20.64-14.47A66.55,66.55,0,0,1,650.44,217a74.9,74.9,0,0,1-4.91-27.44,72.77,72.77,0,0,1,4.79-26.3,67.47,67.47,0,0,1,13.34-21.77A62.93,62.93,0,0,1,684,126.72a62.16,62.16,0,0,1,26.18-5.41q24.16,0,40,16.86Zm-57.39,64.17a30.14,30.14,0,0,0,8.43,21.14,27.52,27.52,0,0,0,9.32,6.3,29.94,29.94,0,0,0,11.7,2.26A29.34,29.34,0,0,0,733.75,217a27.58,27.58,0,0,0,9.31-6.3,32.3,32.3,0,0,0,6.29-9.31A27.2,27.2,0,0,0,751.74,190a28,28,0,0,0-2.39-11.45,31.88,31.88,0,0,0-6.29-9.44,27.41,27.41,0,0,0-9.31-6.29,29.17,29.17,0,0,0-11.45-2.27,29.76,29.76,0,0,0-11.7,2.27,27.35,27.35,0,0,0-9.32,6.29,31,31,0,0,0-6.16,9.18A27.58,27.58,0,0,0,692.85,189.51Z"/>
         <path class="cls-1" d="M826.51,125.34h27.16v16.35q9.32-11.33,18.88-15.22t22.4-3.9q13.59,0,23.28,4.4a46.44,46.44,0,0,1,16.48,12.46,35.77,35.77,0,0,1,7.55,14.6,76.13,76.13,0,0,1,2,18.37v82H917.11a18.4,18.4,0,0,1-18.39-18.39v-46.8a70.49,70.49,0,0,0-1.38-15.48,19.3,19.3,0,0,0-4.91-9.44,17.3,17.3,0,0,0-6.79-4.27,25.34,25.34,0,0,0-8.06-1.26q-11.58,0-17.74,6.92t-6.17,19.76v69H826.51a18.39,18.39,0,0,1-18.39-18.39V143.73A18.39,18.39,0,0,1,826.51,125.34Z"/>
         <path class="cls-1" d="M1056,45.55h27.41a18.39,18.39,0,0,1,18.39,18.39V236.06a18.39,18.39,0,0,1-18.39,18.39H1056V240.1q-14.6,18.38-39.52,18.37a62.86,62.86,0,0,1-25.92-5.28,64.14,64.14,0,0,1-20.64-14.6,66.73,66.73,0,0,1-13.71-21.9,77.2,77.2,0,0,1-.26-53.48,66,66,0,0,1,13.22-21.77A62.53,62.53,0,0,1,1016,121.31q24.16,0,40,16.86Zm-57.39,144a30.14,30.14,0,0,0,8.43,21.14,27.62,27.62,0,0,0,9.32,6.3,29.94,29.94,0,0,0,11.7,2.26,29.34,29.34,0,0,0,11.45-2.26,27.58,27.58,0,0,0,9.31-6.3,32.3,32.3,0,0,0,6.29-9.31,27.05,27.05,0,0,0,2.4-11.32,27.89,27.89,0,0,0-2.4-11.45,31.88,31.88,0,0,0-6.29-9.44,27.41,27.41,0,0,0-9.31-6.29,30,30,0,0,0-22.9,0,27.31,27.31,0,0,0-9.31,6.29,32.86,32.86,0,0,0-6.29,9.18A26.25,26.25,0,0,0,998.63,189.51Z"/>
         <path class="cls-1" d="M1110.88,75.75a24.68,24.68,0,0,1,2-9.94,26.09,26.09,0,0,1,5.53-8.18,26.46,26.46,0,0,1,8.18-5.54,25.58,25.58,0,0,1,19.88,0,26.14,26.14,0,0,1,13.72,13.72,25.61,25.61,0,0,1,0,19.89,26.08,26.08,0,0,1-13.72,13.71,25.47,25.47,0,0,1-19.88,0A26,26,0,0,1,1112.9,85.7,24.69,24.69,0,0,1,1110.88,75.75Zm48.58,68v92.33a18.4,18.4,0,0,1-18.39,18.39H1113.9V125.34h27.17A18.39,18.39,0,0,1,1159.46,143.73Z"/>
         <path class="cls-1" d="M1271.45,45.55h27.42a18.4,18.4,0,0,1,18.39,18.39V236.06a18.4,18.4,0,0,1-18.39,18.39h-27.42V240.1q-14.6,18.38-39.51,18.37a62.91,62.91,0,0,1-25.93-5.28,64.1,64.1,0,0,1-20.63-14.6,66.59,66.59,0,0,1-13.72-21.9,77.12,77.12,0,0,1-.25-53.48,66,66,0,0,1,13.21-21.77,62.53,62.53,0,0,1,46.82-20.13q24.15,0,40,16.86Zm-57.38,144a30,30,0,0,0,8.43,21.14,27.58,27.58,0,0,0,9.31,6.3,30,30,0,0,0,11.71,2.26A29.38,29.38,0,0,0,1255,217a27.68,27.68,0,0,0,9.31-6.3,32.5,32.5,0,0,0,6.29-9.31A27.2,27.2,0,0,0,1273,190a28,28,0,0,0-2.39-11.45,32.07,32.07,0,0,0-6.29-9.44,27.51,27.51,0,0,0-9.31-6.29,30,30,0,0,0-22.91,0,27.41,27.41,0,0,0-9.31,6.29,33.07,33.07,0,0,0-6.29,9.18A26.24,26.24,0,0,0,1214.07,189.51Z"/>
         <path class="cls-2" d="M267.73,267.73,150,150,75,75,32.27,32.27C20.35,20.35,0,28.81,0,45.64V150l75,75,75,75H254.36C271.19,300,279.65,279.65,267.73,267.73Z"/>
         <path class="cls-3" d="M254.36,0H150L75,75,0,150V254.36c0,16.83,20.35,25.29,32.27,13.37L75,225l75-75L267.73,32.27C279.65,20.35,271.19,0,254.36,0Z"/>
      </g>
   </g>
</svg>
