<svg xmlns="http://www.w3.org/2000/svg" width="937.864" height="279.702" viewBox="0 0 937.864 279.702">
  <g id="Group_52" data-name="Group 52" transform="translate(-350 -350)">
    <g id="Group_23" data-name="Group 23" transform="translate(-1737.864 -2055.675)">
      <rect id="Rectangle_22" data-name="Rectangle 22" width="50" height="100" transform="translate(2187.864 2430.675)" fill="#fff" opacity="0.7"/>
      <rect id="Rectangle_23" data-name="Rectangle 23" width="50" height="100" transform="translate(2287.864 2430.675)" fill="#fff" opacity="0.7"/>
      <circle id="Ellipse_22" data-name="Ellipse 22" cx="25" cy="25" r="25" transform="translate(2087.864 2505.675)" fill="#fff"/>
      <circle id="Ellipse_23" data-name="Ellipse 23" cx="25" cy="25" r="25" transform="translate(2187.864 2505.675)" fill="#fff"/>
      <circle id="Ellipse_24" data-name="Ellipse 24" cx="25" cy="25" r="25" transform="translate(2287.864 2505.675)" fill="#fff"/>
      <circle id="Ellipse_25" data-name="Ellipse 25" cx="25" cy="25" r="25" transform="translate(2387.864 2505.675)" fill="#fff"/>
      <circle id="Ellipse_26" data-name="Ellipse 26" cx="25" cy="25" r="25" transform="translate(2187.864 2405.675)" fill="#fff"/>
      <circle id="Ellipse_27" data-name="Ellipse 27" cx="25" cy="25" r="25" transform="translate(2287.864 2405.675)" fill="#fff"/>
      <circle id="Ellipse_28" data-name="Ellipse 28" cx="25" cy="25" r="25" transform="translate(2387.864 2405.675)" fill="#fff"/>
      <g id="Group_20" data-name="Group 20">
        <rect id="Rectangle_24" data-name="Rectangle 24" width="141.421" height="50" transform="translate(2095.186 2512.997) rotate(-45)" fill="#fff"/>
      </g>
      <g id="Group_21" data-name="Group 21">
        <rect id="Rectangle_25" data-name="Rectangle 25" width="141.421" height="50" transform="translate(2195.186 2512.997) rotate(-45)" fill="#fff"/>
      </g>
      <g id="Group_22" data-name="Group 22">
        <rect id="Rectangle_26" data-name="Rectangle 26" width="141.421" height="50" transform="translate(2295.186 2512.997) rotate(-45)" fill="#fff"/>
      </g>
    </g>
    <g id="Group_24" data-name="Group 24" transform="translate(-1737.864 -2055.675)">
      <path id="Path_58" data-name="Path 58" d="M2625.139,2555.675l-.216-90-44.393,74.143H2564.8L2520.62,2467.6v88.071h-32.756v-150h28.877l56.462,93.214,55.6-93.214h28.662l.431,150Z" fill="#fff"/>
      <path id="Path_59" data-name="Path 59" d="M2744.244,2496.747l-20.257,21v37.928h-34.7v-150h34.7v70.072l66.806-70.072h38.79l-62.5,66.858,66.158,83.142h-40.729Z" fill="#fff"/>
      <path id="Path_60" data-name="Path 60" d="M2845.636,2405.675h34.911v150h-34.911Z" fill="#fff"/>
      <path id="Path_61" data-name="Path 61" d="M2942.544,2433.962h-48.272v-28.287h131.456v28.287h-48.273v121.713h-34.911Z" fill="#fff"/>
    </g>
    <g id="Group_25" data-name="Group 25" transform="translate(-1737.864 -2055.675)">
      <path id="Path_62" data-name="Path 62" d="M2145.052,2674.682v9.794h-57.188v-78.8h55.612v9.794h-44.355v24.2h39.514v9.57h-39.514v25.441Z" fill="#fff"/>
      <path id="Path_63" data-name="Path 63" d="M2212.292,2600.947v83.529h-10.357v-9.456a23.4,23.4,0,0,1-9.118,7.542,28.236,28.236,0,0,1-12.159,2.589,31.352,31.352,0,0,1-15.535-3.827,27.419,27.419,0,0,1-10.752-10.751,34.5,34.5,0,0,1,0-31.8,27.545,27.545,0,0,1,10.752-10.694,31.376,31.376,0,0,1,15.535-3.828,28.569,28.569,0,0,1,11.819,2.421,22.943,22.943,0,0,1,9.007,7.148v-32.871Zm-20.488,72.1a18.563,18.563,0,0,0,7.2-7.429,24.562,24.562,0,0,0,0-21.952,18.229,18.229,0,0,0-7.2-7.374,21.676,21.676,0,0,0-20.546,0,18.689,18.689,0,0,0-7.205,7.374,24.1,24.1,0,0,0,0,21.952,19.039,19.039,0,0,0,7.205,7.429,21.265,21.265,0,0,0,20.546,0Z" fill="#fff"/>
      <path id="Path_64" data-name="Path 64" d="M2284.168,2624.812v59.664h-10.243v-9.006a21.726,21.726,0,0,1-8.612,7.149,26.861,26.861,0,0,1-11.652,2.532q-11.932,0-18.8-6.586T2228,2659.147v-34.335H2238.8v33.1q0,8.669,4.165,13.114t11.933,4.447q8.555,0,13.508-5.178t4.954-14.634v-30.846Z" fill="#fff"/>
      <path id="Path_65" data-name="Path 65" d="M2311.445,2681.211a28.855,28.855,0,0,1-11.2-10.863,32.45,32.45,0,0,1,0-31.408,28.475,28.475,0,0,1,11.2-10.807,33.513,33.513,0,0,1,16.265-3.884,31.229,31.229,0,0,1,14.466,3.265,23.279,23.279,0,0,1,9.851,9.456l-8.217,5.291a18.39,18.39,0,0,0-6.981-6.417,19.929,19.929,0,0,0-9.231-2.139,21.347,21.347,0,0,0-10.525,2.589,18.464,18.464,0,0,0-7.318,7.374,24.33,24.33,0,0,0,0,22.064,18.424,18.424,0,0,0,7.318,7.374,21.313,21.313,0,0,0,10.525,2.589,19.9,19.9,0,0,0,9.231-2.138,18.373,18.373,0,0,0,6.981-6.417l8.217,5.178a23.6,23.6,0,0,1-9.851,9.513,30.789,30.789,0,0,1-14.466,3.32A33.1,33.1,0,0,1,2311.445,2681.211Z" fill="#fff"/>
      <path id="Path_66" data-name="Path 66" d="M2404.565,2630.328q6.585,6.08,6.586,18.124v36.024h-10.246v-7.88a17.079,17.079,0,0,1-7.71,6.361,29.448,29.448,0,0,1-11.877,2.194q-10.022,0-16.042-4.84a16.64,16.64,0,0,1-.281-25.386q5.74-4.782,18.237-4.783h17.11V2648q0-6.979-4.052-10.7t-11.932-3.714a31.616,31.616,0,0,0-10.357,1.745,26.692,26.692,0,0,0-8.555,4.671l-4.505-8.1a32.682,32.682,0,0,1,11.033-5.684,46.174,46.174,0,0,1,13.622-1.971Q2397.977,2624.249,2404.565,2630.328Zm-10.751,43.736a15.781,15.781,0,0,0,6.528-7.825v-8.33h-16.66q-13.737,0-13.734,9.231a8.349,8.349,0,0,0,3.49,7.092q3.487,2.592,9.681,2.589A20.078,20.078,0,0,0,2393.814,2674.064Z" fill="#fff"/>
      <path id="Path_67" data-name="Path 67" d="M2459.905,2680.986a16.132,16.132,0,0,1-5.854,3.1,24.455,24.455,0,0,1-7.205,1.069q-9.007,0-13.958-4.84t-4.955-13.846v-32.76H2417.8v-8.893h10.131v-13.058h10.809v13.058h17.11v8.893h-17.11v32.309q0,4.842,2.419,7.43t6.924,2.589a13.023,13.023,0,0,0,8.443-2.814Z" fill="#fff"/>
      <path id="Path_68" data-name="Path 68" d="M2469.1,2611.3a6.643,6.643,0,0,1-2.081-4.953,6.834,6.834,0,0,1,2.081-5.01,7.1,7.1,0,0,1,5.236-2.082,7.322,7.322,0,0,1,5.233,1.97,6.469,6.469,0,0,1,2.084,4.9,6.962,6.962,0,0,1-2.084,5.122,7.093,7.093,0,0,1-5.233,2.083A7.2,7.2,0,0,1,2469.1,2611.3Zm-.168,13.509h10.807v59.664h-10.807Z" fill="#fff"/>
      <path id="Path_69" data-name="Path 69" d="M2506.406,2681.211a28.553,28.553,0,0,1-11.088-10.863,32.848,32.848,0,0,1,0-31.408,28.176,28.176,0,0,1,11.088-10.807,32.73,32.73,0,0,1,15.986-3.884,32.4,32.4,0,0,1,15.928,3.884,28.294,28.294,0,0,1,11.033,10.807,32.855,32.855,0,0,1,0,31.408,28.676,28.676,0,0,1-11.033,10.863,32,32,0,0,1-15.928,3.94A32.329,32.329,0,0,1,2506.406,2681.211Zm26.286-8.162a18.669,18.669,0,0,0,7.149-7.429,24.562,24.562,0,0,0,0-21.952,18.328,18.328,0,0,0-7.149-7.374,21.786,21.786,0,0,0-20.6,0,18.68,18.68,0,0,0-7.2,7.374,24.088,24.088,0,0,0,0,21.952,19.03,19.03,0,0,0,7.2,7.429,21.372,21.372,0,0,0,20.6,0Z" fill="#fff"/>
      <path id="Path_70" data-name="Path 70" d="M2615.028,2630.835q6.7,6.585,6.7,19.307v34.334h-10.808v-33.1q0-8.668-4.165-13.059t-11.932-4.391q-8.782,0-13.848,5.123t-5.065,14.691v30.732H2565.1v-59.664h10.357v9.006a21.009,21.009,0,0,1,8.837-7.092,30.9,30.9,0,0,1,12.665-2.477Q2608.33,2624.249,2615.028,2630.835Z" fill="#fff"/>
      <path id="Path_71" data-name="Path 71" d="M2687.526,2680.141a38.479,38.479,0,0,1-14.916-14.409,42.181,42.181,0,0,1,0-41.313,38.4,38.4,0,0,1,14.972-14.411,43.833,43.833,0,0,1,21.39-5.234,44.676,44.676,0,0,1,16.886,3.095,34.6,34.6,0,0,1,13.058,9.176l-7.317,7.092a29.364,29.364,0,0,0-22.177-9.344,32.133,32.133,0,0,0-15.874,3.94,28.557,28.557,0,0,0-11.087,10.864,31.97,31.97,0,0,0,0,30.957,28.556,28.556,0,0,0,11.087,10.864,32.122,32.122,0,0,0,15.874,3.94,29.424,29.424,0,0,0,22.177-9.456l7.317,7.092a35.021,35.021,0,0,1-13.116,9.231,44.354,44.354,0,0,1-16.941,3.152A43.489,43.489,0,0,1,2687.526,2680.141Z" fill="#fff"/>
      <path id="Path_72" data-name="Path 72" d="M2803.283,2658.247h-48.406a18.728,18.728,0,0,0,6.924,12.664q5.908,4.787,14.69,4.784,10.694,0,17.224-7.2l5.966,6.979a26.135,26.135,0,0,1-10.074,7.205,38,38,0,0,1-30.226-1.407,27.681,27.681,0,0,1-11.314-10.863,31.144,31.144,0,0,1-4-15.76,31.638,31.638,0,0,1,3.884-15.649,27.814,27.814,0,0,1,10.695-10.863,30.457,30.457,0,0,1,15.366-3.884,29.851,29.851,0,0,1,15.253,3.884,27.3,27.3,0,0,1,10.47,10.863,33.114,33.114,0,0,1,3.771,15.986A31,31,0,0,1,2803.283,2658.247Zm-42.271-20.152a19.07,19.07,0,0,0-6.135,12.383h38.275a19.2,19.2,0,0,0-6.134-12.326,20.152,20.152,0,0,0-26.006-.057Z" fill="#fff"/>
      <path id="Path_73" data-name="Path 73" d="M2864.953,2630.835q6.695,6.585,6.7,19.307v34.334h-10.807v-33.1q0-8.668-4.165-13.059t-11.932-4.391q-8.781,0-13.848,5.123t-5.064,14.691v30.732h-10.809v-59.664h10.357v9.006a21.02,21.02,0,0,1,8.837-7.092,30.9,30.9,0,0,1,12.666-2.477Q2858.254,2624.249,2864.953,2630.835Z" fill="#fff"/>
      <path id="Path_74" data-name="Path 74" d="M2920.362,2680.986a16.155,16.155,0,0,1-5.855,3.1,24.452,24.452,0,0,1-7.205,1.069q-9.006,0-13.959-4.84t-4.953-13.846v-32.76h-10.131v-8.893h10.131v-13.058H2899.2v13.058h17.111v8.893H2899.2v32.309q0,4.842,2.421,7.43t6.922,2.589a13.02,13.02,0,0,0,8.443-2.814Z" fill="#fff"/>
      <path id="Path_75" data-name="Path 75" d="M2981.9,2658.247H2933.5a18.737,18.737,0,0,0,6.922,12.664q5.912,4.787,14.692,4.784,10.695,0,17.223-7.2l5.968,6.979a26.147,26.147,0,0,1-10.077,7.205,38,38,0,0,1-30.225-1.407,27.674,27.674,0,0,1-11.314-10.863,31.141,31.141,0,0,1-4-15.76,31.638,31.638,0,0,1,3.884-15.649,27.84,27.84,0,0,1,10.694-10.863,30.468,30.468,0,0,1,15.367-3.884,29.854,29.854,0,0,1,15.254,3.884A27.3,27.3,0,0,1,2978.357,2639a33.1,33.1,0,0,1,3.772,15.986A31.282,31.282,0,0,1,2981.9,2658.247Zm-42.272-20.152a19.056,19.056,0,0,0-6.135,12.383h38.274a19.188,19.188,0,0,0-6.135-12.326,20.149,20.149,0,0,0-26-.057Z" fill="#fff"/>
      <path id="Path_76" data-name="Path 76" d="M3012.332,2626.951a30.23,30.23,0,0,1,13.4-2.7v10.469a21.618,21.618,0,0,0-2.477-.112q-8.781,0-13.79,5.235t-5.009,14.916v29.719h-10.808v-59.664H3004v10.019A18.429,18.429,0,0,1,3012.332,2626.951Z" fill="#fff"/>
    </g>
  </g>
</svg>
